#!OML:ASF \\sashay\E\Suitcase\Project 1\Capture day 1\Session 1\Male1.ASF
:FULLY-SPECIFIED
:DEGREES
522
root -1.46933 17.5373 9.39263 3.30204 3.27653 -2.96777
lowerback 0.730893 -1.36367 1.98079
upperback -2.52351 -1.72891 1.74137
thorax -3.0066 -0.887252 0.737781
lowerneck -9.30517 -3.26812 -5.78653
upperneck 24.9765 -3.00126 -1.94158
head 9.48657 -2.15154 -0.0181174
rclavicle -7.8023e-015 4.96962e-015
rhumerus -20.6867 -29.2941 -67.8369
rradius 15.2713
rwrist -0.599846
rhand -13.025 25.6717
rfingers 7.12502
rthumb 13.0691 -3.89882
lclavicle -7.8023e-015 4.96962e-015
lhumerus -37.6763 0.709897 84.8345
lradius 30.947
lwrist -6.81115
lhand 1.98945 45.386
lfingers 7.12502
lthumb 27.4945 73.3988
rfemur -4.54579 -2.63704 24.677
rtibia 13.7571
rfoot -9.7797 -15.3792
rtoes 14.03
lfemur -7.2197 -5.86644 -9.06787
ltibia 16.7655
lfoot -12.0017 4.74816
ltoes -8.90048
523
root -1.4685 17.5349 9.3879 3.29152 3.19577 -2.96359
lowerback 0.750186 -1.33838 1.88197
upperback -2.43207 -1.69755 1.80477
thorax -2.91807 -0.867873 0.855716
lowerneck -9.30567 -3.28124 -5.90042
upperneck 24.7754 -3.00428 -1.92915
head 9.41886 -2.15768 0.00726026
rclavicle -1.26321e-014 1.19271e-015
rhumerus -20.9471 -29.2684 -67.6788
rradius 15.41
rwrist -0.734606
rhand -13.0875 25.2313
rfingers 7.12502
rthumb 13.0089 -4.34313
lclavicle -1.26321e-014 1.19271e-015
lhumerus -37.4094 0.811077 84.9134
lradius 30.8427
lwrist -6.91675
lhand 2.35075 45.6076
lfingers 7.12502
lthumb 27.84 73.565
rfemur -4.61233 -2.21809 24.665
rtibia 13.8851
rfoot -10.4973 -15.683
rtoes 17.4778
lfemur -7.21022 -5.77834 -9.10201
ltibia 16.7373
lfoot -11.6392 4.85287
ltoes -8.91785
524
root -1.46234 17.5343 9.38598 3.3179 3.06794 -2.8365
lowerback 0.771842 -1.35602 1.67355
upperback -2.34923 -1.72642 1.84296
thorax -2.83718 -0.876684 1.01124
lowerneck -9.44818 -3.24374 -5.91037
upperneck 24.6223 -2.92311 -2.00562
head 9.38957 -2.12607 -0.00917082
rclavicle -1.92386e-014 -1.49089e-014
rhumerus -21.1025 -29.6975 -67.4746
rradius 15.4118
rwrist -0.141419
rhand -13.3607 25.3864
rfingers 7.12502
rthumb 12.7455 -4.2046
lclavicle -1.92386e-014 -1.49089e-014
lhumerus -37.1961 0.683013 85.1108
lradius 30.7453
lwrist -6.60943
lhand 2.3893 45.4825
lfingers 7.12502
lthumb 27.8768 73.4339
rfemur -4.6793 -2.18448 24.5261
rtibia 13.9327
rfoot -10.1665 -15.6567
rtoes 15.3587
lfemur -7.24155 -5.81513 -9.25389
ltibia 16.7926
lfoot -11.7738 4.94247
ltoes -8.75399
525
root -1.46592 17.5339 9.38579 3.34734 2.82958 -2.85496
lowerback 0.758914 -1.38621 1.45218
upperback -2.31059 -1.77069 1.94681
thorax -2.77971 -0.89256 1.2419
lowerneck -9.34781 -3.14302 -5.85244
upperneck 24.366 -2.78363 -2.10247
head 9.27487 -2.06059 -0.0318549
rclavicle 2.65812e-014 9.93923e-015
rhumerus -21.1487 -28.8988 -67.6219
rradius 15.313
rwrist -0.539182
rhand -13.2837 24.7451
rfingers 7.12502
rthumb 12.8197 -4.84129
lclavicle 2.65812e-014 9.93923e-015
lhumerus -37.1827 1.08394 85.0292
lradius 30.8123
lwrist -6.83755
lhand 2.47307 45.4469
lfingers 7.12502
lthumb 27.9569 73.3853
rfemur -4.72708 -1.48973 24.5985
rtibia 13.9454
rfoot -10.1045 -16.13
rtoes 15.2843
lfemur -7.26656 -5.65083 -9.22866
ltibia 16.8026
lfoot -11.6334 5.04036
ltoes -9.03558
526
root -1.45219 17.532 9.38894 3.26104 2.7869 -3.04651
lowerback 0.85763 -1.40458 1.67982
upperback -2.26312 -1.78668 2.01339
thorax -2.79144 -0.904653 1.1855
lowerneck -9.23722 -3.11219 -5.7717
upperneck 24.1423 -2.75417 -2.16762
head 9.17216 -2.04125 -0.0597223
rclavicle 4.16205e-015 7.95139e-016
rhumerus -21.328 -29.5393 -67.2724
rradius 14.8209
rwrist 0.146533
rhand -13.3664 25.5182
rfingers 7.12502
rthumb 12.74 -4.07312
lclavicle 4.16205e-015 7.95139e-016
lhumerus -37.1783 0.816226 85.2601
lradius 30.8547
lwrist -6.44969
lhand 1.85878 45.2918
lfingers 7.12502
lthumb 27.3695 73.3244
rfemur -4.73396 -1.5928 24.738
rtibia 14.0894
rfoot -10.2588 -16.0276
rtoes 15.7248
lfemur -7.03851 -5.62072 -9.06815
ltibia 16.6729
lfoot -11.8259 4.94052
ltoes -8.92727
527
root -1.42923 17.5346 9.38011 3.29086 2.99396 -2.97139
lowerback 1.01283 -1.54199 1.74988
upperback -2.31565 -1.96133 2.04866
thorax -2.93314 -0.993264 1.19453
lowerneck -9.00036 -3.03696 -5.86059
upperneck 23.9084 -2.64994 -2.19459
head 9.04607 -1.99737 -0.0361785
rclavicle -3.95581e-014 2.24627e-014
rhumerus -21.6672 -29.0746 -67.1103
rradius 14.8519
rwrist -0.149176
rhand -13.0692 24.9698
rfingers 7.12502
rthumb 13.0265 -4.60342
lclavicle -3.95581e-014 2.24627e-014
lhumerus -37.3745 0.900766 85.3996
lradius 31.1778
lwrist -6.44543
lhand 1.98576 45.4549
lfingers 7.12502
lthumb 27.491 73.4682
rfemur -4.80993 -2.07757 24.5553
rtibia 14.2194
rfoot -10.5552 -15.7908
rtoes 17.06
lfemur -7.08735 -5.69875 -9.25209
ltibia 16.5524
lfoot -11.4489 4.99394
ltoes -9.16534
528
root -1.41515 17.5413 9.37531 3.44802 2.98549 -2.39862
lowerback 1.05663 -1.5835 1.18309
upperback -2.37788 -2.03112 1.96128
thorax -3.00428 -1.01633 1.42668
lowerneck -8.81795 -2.98435 -5.96141
upperneck 23.7434 -2.57071 -2.21738
head 8.95539 -1.96705 -0.0139036
rclavicle -1.61668e-014 9.93923e-015
rhumerus -21.5796 -28.7768 -67.01
rradius 14.2381
rwrist -0.228089
rhand -13.5576 25.5841
rfingers 7.12502
rthumb 12.5557 -4.01861
lclavicle -1.61668e-014 9.93923e-015
lhumerus -37.5869 0.820979 85.5824
lradius 31.4433
lwrist -6.27723
lhand 1.85795 45.6806
lfingers 7.12502
lthumb 27.3687 73.7133
rfemur -5.04572 -2.1299 23.8735
rtibia 14.2056
rfoot -10.0679 -15.862
rtoes 14.9057
lfemur -7.22069 -5.74614 -9.93713
ltibia 16.5481
lfoot -11.6273 4.89052
ltoes -8.97057
529
root -1.39453 17.5436 9.37472 3.55685 2.95334 -2.26092
lowerback 0.988743 -1.61922 1.20391
upperback -2.39099 -2.0807 1.92147
thorax -2.98096 -1.04209 1.37395
lowerneck -8.52849 -2.91508 -5.99886
upperneck 23.5197 -2.49409 -2.22542
head 8.82319 -1.92888 0.00478097
rclavicle -1.17935e-014 4.29375e-014
rhumerus -21.9056 -29.1579 -66.6979
rradius 13.8676
rwrist 0.292017
rhand -13.6333 25.8318
rfingers 7.12502
rthumb 12.4826 -3.77536
lclavicle -1.17935e-014 4.29375e-014
lhumerus -37.561 0.808267 85.6455
lradius 31.4904
lwrist -6.239
lhand 0.178507 44.4449
lfingers 7.12502
lthumb 25.7613 72.721
rfemur -5.2182 -2.49526 23.6229
rtibia 14.3229
rfoot -9.98073 -15.4886
rtoes 14.378
lfemur -7.23731 -5.77922 -10.1726
ltibia 16.4485
lfoot -11.8261 4.97997
ltoes -9.55718
530
root -1.39657 17.5374 9.37879 3.46545 2.73832 -2.78767
lowerback 1.08974 -1.59737 1.59181
upperback -2.26239 -2.03723 2.10052
thorax -2.91349 -1.02691 1.3401
lowerneck -8.65895 -2.84867 -5.90821
upperneck 23.411 -2.39075 -2.30888
head 8.80505 -1.87891 -0.0287257
rclavicle -3.12465e-015 1.59028e-015
rhumerus -22.2092 -29.4715 -66.5899
rradius 13.9285
rwrist 0.73885
rhand -13.9029 25.7122
rfingers 7.12502
rthumb 12.2227 -3.91067
lclavicle -3.12465e-015 1.59028e-015
lhumerus -37.3934 0.707567 85.6855
lradius 31.5123
lwrist -6.27071
lhand 0.286768 44.3445
lfingers 7.12502
lthumb 25.865 72.6055
rfemur -5.09918 -1.62946 24.2418
rtibia 14.3827
rfoot -10.4583 -16.0303
rtoes 16.186
lfemur -7.09744 -5.47804 -9.55833
ltibia 16.3898
lfoot -11.7169 5.05029
ltoes -9.42622
531
root -1.37159 17.5408 9.37289 3.49105 2.74219 -2.4848
lowerback 1.22067 -1.61272 1.56883
upperback -2.25957 -2.05814 1.96046
thorax -2.98832 -1.03853 1.21403
lowerneck -8.48409 -2.82383 -5.82801
upperneck 23.19 -2.36993 -2.39578
head 8.69345 -1.86485 -0.0640483
rclavicle -1.86361e-015 -1.55052e-014
rhumerus -22.5982 -29.9009 -66.2904
rradius 13.8277
rwrist 1.40118
rhand -14.0135 24.9969
rfingers 7.12502
rthumb 12.116 -4.63226
lclavicle -1.86361e-015 -1.55052e-014
lhumerus -37.4178 0.359772 85.8678
lradius 31.5802
lwrist -6.12566
lhand 0.778834 44.7404
lfingers 7.12502
lthumb 26.3361 72.9318
rfemur -5.11731 -2.13098 23.7898
rtibia 14.3312
rfoot -10.218 -15.6016
rtoes 15.3987
lfemur -7.12417 -5.42393 -9.9925
ltibia 16.4514
lfoot -11.8226 4.95184
ltoes -9.14905
532
root -1.39239 17.54 9.3805 3.39851 2.22338 -2.67769
lowerback 1.31573 -1.54478 1.311
upperback -2.24198 -1.9689 2.10466
thorax -3.01068 -0.986464 1.50558
lowerneck -8.06739 -2.69566 -5.53603
upperneck 22.8468 -2.22836 -2.64409
head 8.48774 -1.78822 -0.17158
rclavicle -7.5973e-015 5.96354e-015
rhumerus -23.3186 -30.5367 -65.8416
rradius 13.7237
rwrist 2.53829
rhand -13.9774 26.1895
rfingers 7.12502
rthumb 12.1509 -3.43758
lclavicle -7.5973e-015 5.96354e-015
lhumerus -37.6617 0.410694 85.7816
lradius 31.8334
lwrist -6.12677
lhand 0.679979 44.5971
lfingers 7.12502
lthumb 26.2415 72.8027
rfemur -5.20353 -0.389247 24.1525
rtibia 14.5209
rfoot -10.3631 -16.8018
rtoes 16.5583
lfemur -6.88675 -5.2634 -9.68083
ltibia 16.2942
lfoot -12.1241 4.94677
ltoes -11.7648
